<?xml version="1.0" encoding="utf-8"?>
<!-- Generator: Adobe Illustrator 22.1.0, SVG Export Plug-In . SVG Version: 6.00 Build 0)  -->
<svg version="1.1" id="Layer_1" xmlns="http://www.w3.org/2000/svg" xmlns:xlink="http://www.w3.org/1999/xlink" x="0px" y="0px"
	 viewBox="0 0 100 100" style="enable-background:new 0 0 100 100;" xml:space="preserve">
<style type="text/css">
	.st0{fill:none;stroke:#000000;stroke-width:3;stroke-miterlimit:10;}
	.st1{fill:#EBD028;}
	.st2{fill:#FA8006;}
	.st3{fill:#0F0C08;}
	.st4{fill:#F6F5E8;}
	.st5{fill:#FFFFFF;stroke:#000000;stroke-width:4;stroke-miterlimit:10;}
	.st6{fill:none;}
	.st7{font-family:'LeagueSpartan-Bold';}
	.st8{font-size:85px;}
</style>
<path class="st0" d="M73.5,34.5h-18c-6.6,0-12,5.4-12,12v18c0,6.6,5.4,12,12,12h18c6.6,0,12-5.4,12-12v-18
	C85.5,39.9,80.1,34.5,73.5,34.5z"/>
<polygon class="st1" points="31,38 35,41 41,40 43,37 43,32 47,30 51,29 59,29 67,29 74,29 76,76 71,82 56,85 36,85 25,82 22,69 
	23,40 30,37 "/>
<path class="st2" d="M58.5,29.9c0,0,0.4,39,0.4,40s-3.7,9.1-8.6,11.3s-4.9,3.2-4.9,3.2l19-0.7c0,0,5.9-3.2,5.8-5.2s-0.2-6-0.2-6
	l-0.6-43L58.5,29.9z"/>
<g>
	<path class="st3" d="M43.5,34.9c1.9,0.8,1.4,2.4,0.9,3.7c-1.8,5-8.8,6.1-12.6,1.9c-0.9-0.9-1.5-2.7-3-0.8c-4.7,0.4-4.7,0.4-4.6,5.2
		c0.1,9.6,0.2,19.2,0.2,28.8c0,5.8,3,8.9,8.7,8.6c6.3,0.2,12.6,0.4,18.9-0.3c3.5,0.4,6.9,0.4,10.4,0.1c4.4,0.3,8.2-0.7,10.4-5.1l0,0
		c1.2-1.5,1.2-3.2,1-5c0-0.5,0-1,0.1-1.4C74,66.7,74,62.9,73.6,59c0-0.7,0.1-1.4,0.1-2.1c0.1-0.3,0.2-0.7,0.3-1l0,0
		c1.2-0.6,2.1-0.7,2.6-0.4c0.6,0.3,0.8,1.1,0.8,1.4c0.2,0.6,0.1,1.1,0.1,1.3c-0.2,2.2-0.2,6.3,0.1,13.2c0.3,6.1-2.2,10.4-7.3,13.4
		c-6.6,2.5-13.5,1.2-20.2,1.5c-5.5,0.3-11.1,0.1-16.7,0.1c-8,0.1-12.6-4.2-12.8-12.2c-0.2-11.1,0.1-22.2-0.5-33.3
		c-0.3-5-2.1-9.8-1.7-15c0.3-4.2,2.7-7.1,6.6-7.2c1.1,0,2.2,0.1,2.4,1.4c0.2,1.3-0.8,1.8-1.9,1.9c-3.2,0.1-3.9,2.2-3.8,4.9
		c0,2.2,0.1,4.3,0.1,6.5c0,2.2,1.1,3.3,3.3,3.5c2.1,0.2,3.6-0.4,4.1-2.6c0.1-0.7,0.2-1.3,0.3-2c0.1-1,0.7-1.4,1.6-1.4
		c1,0,1.3,0.7,1.4,1.6c0.1,1.6,0.2,3.1,0.9,4.6c0.8,1.8,2.2,2.9,4.2,2.9c2.1,0,3.5-0.9,4-2.9C41.8,35.8,42.3,35.1,43.5,34.9z"/>
	<path class="st3" d="M77.3,34c0,4.1-0.1,8.2-0.1,12.3c-2.2,1.6-3.4,0.9-3.5-1.7c-0.2-3.8-0.2-7.7-0.3-11.5c0-0.5,0-0.9,0-1.4
		c-1.7-2.4-4.1-0.6-6.1-0.8c-3.7-0.2-7.3-0.4-10.9,0.1c-2.6-0.4-5.2,0-7.8-0.1c-2.2-0.1-3.4,1.4-4.9,2.5c-3-1.4-1.7-3,0-4.3
		c2.2-1.7,4.9-1.5,7.5-1.6c7-0.1,14.1-0.1,21.1-0.2c0.4,0,0.8-0.2,1.3-0.3c-1.2-4.5-2.6-5.7-6.8-5.7c-7.4,0-14.7,0-22.1,0.1
		c-1.8,0-3-0.2-3.3-2.4s-1.6-3.4-4-3.4s-3.4,1.5-4,3.5c-0.1,0.3-0.1,0.7-0.2,1c-0.3,1.4,0.4,4-1.8,3.6c-2.5-0.4-1.5-2.9-1.2-4.5
		c0.5-3.4,2.1-6,5.8-6.7c3.5-0.7,6.1,0.6,8,4.2c0.6,1.2,1.3,1.5,2.6,1.5C52.7,18,58.8,18,65,18c7.9-0.1,11,2.5,12.3,10.4
		c0.1,0.4,0.2,0.9,0.3,1.3C77.3,31.3,77.3,32.6,77.3,34"/>
	<path class="st4" d="M33.1,82.4c-5.7,0.2-8.7-2.8-8.7-8.6c0-9.6-0.1-19.2-0.2-28.8c-0.1-4.8-0.1-4.8,4.6-5.2
		c0,10.8,0.1,21.6,0.1,32.5C28.9,76.2,31,79.3,33.1,82.4z"/>
	<path class="st3" d="M36,71.5c-1.8-0.2-2.2-1.6-2.1-2.9c0.2-1.5,1.7-1.1,2.8-1.3c0.7-0.1,1.4-0.1,2,0c1.2,0.1,2.8-0.5,3.3,0.9
		s-0.5,2.6-1.5,3.5c0.2-1.8-0.9-2.6-2.5-2.5C36.8,69.5,35.3,69.6,36,71.5z"/>
	<path class="st3" d="M45.9,63.4c0,1.3-0.7,2.1-1.9,2.3c-1.4,0.2-2.5-0.5-2.6-2c-0.1-1.4,0.8-2.1,2-2.2
		C44.7,61.4,45.5,62.1,45.9,63.4z"/>
	<path class="st3" d="M31.9,61.6c1.3-0.1,2.3,0.4,2.5,1.8c0.2,1.5-0.6,2.3-2.1,2.5C31,66,30.1,65.2,30,64
		C29.8,62.7,30.6,61.9,31.9,61.6z"/>
	<path class="st2" d="M36,71.5c-0.7-2,0.8-2.1,2-2.2c1.7-0.1,2.7,0.6,2.5,2.5c-1.3,1-2.6,1.1-4.1,0.5C36.8,71.8,36.6,71.5,36,71.5
		L36,71.5z"/>
	<path class="st3" d="M36,71.5c0.6,0,0.8,0.3,0.5,0.9C36.4,72.1,35.5,72.2,36,71.5z"/>
	<path class="st1" d="M65.9,78.5"/>
	<path class="st1" d="M67,76.3"/>
	<path class="st1" d="M67.5,74.2"/>
</g>
<path class="st3" d="M77.3,56.5C77,55,77,46,77,46l-3.3-0.5l-0.2,12.2L77.3,56.5z"/>
<circle class="st1" cx="62.5" cy="35.5" r="1.5"/>
<circle class="st1" cx="65.5" cy="47.5" r="1.5"/>
<circle class="st1" cx="63.5" cy="55.5" r="1.5"/>
<circle class="st1" cx="65.5" cy="69.5" r="1.5"/>
<circle class="st1" cx="59.5" cy="77.5" r="1.5"/>
<circle class="st1" cx="65.5" cy="75.5" r="1.5"/>
<path d="M77,37"/>
<path class="st5" d="M22.2,36.6c-3.9-2.3-6.2-6.1-6.2-10.1c0-6.7,6.3-12.2,14-12.2c1.1,0,2.2,0.1,3.2,0.3c3.1-5.9,9.2-9.5,16-9.5
	C56,5,62,8.5,65.2,14.2c0.4,0,0.7,0,1.1,0c6.7,0,12.2,5.3,12.2,11.8c0,4-2.2,7.8-5.8,10l-4,1.6c-0.8,0.2-1.6,0.2-2.4,0.2
	c-1.9,0-3.9-0.4-5.6-1.3c-3.2,2.6-7.2,4-11.4,4c-1.2,0-2.4-0.1-3.5-0.3v1.6c0,4.8-3.2,8.7-7.2,8.7h-0.3c-4,0-7.2-3.9-7.2-8.7v-3.1
	c-0.4,0-0.7,0-1,0c-1.3,0-2.5-0.2-3.8-0.5l0,0C27.4,37.6,22.2,36.6,22.2,36.6z"/>
<rect x="91.3" y="12.1" class="st6" width="629.7" height="75.7"/>
<text transform="matrix(1 0 0 1 91.3327 85.2459)" class="st7 st8">BeerBuddy</text>
</svg>
