<?xml version="1.0" standalone="no"?>
<!DOCTYPE svg PUBLIC "-//W3C//DTD SVG 20010904//EN"
 "http://www.w3.org/TR/2001/REC-SVG-20010904/DTD/svg10.dtd">
<svg version="1.0" xmlns="http://www.w3.org/2000/svg"
 width="500.000000pt" height="500.000000pt" viewBox="0 0 500.000000 500.000000"
 preserveAspectRatio="xMidYMid meet">
<metadata>
Created by potrace 1.11, written by Peter Selinger 2001-2013
</metadata>
<g transform="translate(0.000000,500.000000) scale(0.100000,-0.100000)"
fill="#000000" stroke="none">
<path d="M2281 4224 c-103 -22 -182 -51 -264 -99 -87 -51 -198 -151 -247 -223
l-33 -47 -101 -1 c-298 -4 -549 -176 -630 -432 -65 -205 -5 -411 165 -572 43
-40 49 -51 54 -100 11 -105 15 -217 20 -640 11 -928 12 -939 34 -1013 53 -181
161 -276 368 -325 37 -9 1339 -7 1427 2 80 8 195 32 241 52 37 15 127 84 169
128 34 37 91 123 100 152 4 15 25 28 66 43 128 47 247 153 308 274 59 120 62
146 61 637 0 392 -3 453 -18 510 -43 162 -162 304 -313 374 -42 19 -44 23 -24
45 24 28 64 135 77 206 55 317 -188 629 -515 661 -53 5 -64 9 -85 37 -51 66
-188 193 -243 225 -83 49 -188 89 -275 106 -96 18 -257 18 -342 0z"/>
</g>
</svg>
